<svg xmlns="http://www.w3.org/2000/svg" xmlns:xlink="http://www.w3.org/1999/xlink" width="210" height="107" viewBox="0 0 210 107"><defs><style>.a{fill:#fff;stroke:#fefefe;stroke-width:6px;opacity:0.8;}.b{stroke:#f9f2fd;stroke-miterlimit:10;fill:url(#c);}.c{stroke:none;}.d{fill:none;}.e{filter:url(#a);}</style><filter id="a" x="0" y="0" width="210" height="107" filterUnits="userSpaceOnUse"><feOffset dy="3" input="SourceAlpha"/><feGaussianBlur stdDeviation="3" result="b"/><feFlood flood-opacity="0.161"/><feComposite operator="in" in2="b"/><feComposite in="SourceGraphic"/></filter><linearGradient id="c" y1="0.5" x2="1" y2="0.5" gradientUnits="objectBoundingBox"><stop offset="0" stop-color="#511b95"/><stop offset="1" stop-color="#fa009e"/></linearGradient></defs><g transform="translate(-145 -23)"><g class="e" transform="matrix(1, 0, 0, 1, 145, 23)"><g class="a" transform="translate(9 6)"><rect class="c" width="192" height="89" rx="44.5"/><rect class="d" x="3" y="3" width="186" height="83" rx="41.5"/></g></g><path class="b" d="M-474.358-3.491V2.469h5.538l-5.328,9.277H-457.3V5.755h-6.169l5.364-9.247Zm12.61-3.443c1.522-.176,3.056-.288,4.565-.544A88.073,88.073,0,0,0-447.7-9.9q5.263-1.488,10.528-2.963a8.993,8.993,0,0,1,4.925.015q4.938,1.379,9.875,2.783A89.052,89.052,0,0,0-411.1-7.292a20.623,20.623,0,0,0,5.6.135,3.4,3.4,0,0,0,3.028-2.289,11.537,11.537,0,0,0,.586-2.493c.166-1.411.183-2.84.33-4.254.184-1.778.493-3.544.648-5.324a9.158,9.158,0,0,0-2.994-8.074,11.133,11.133,0,0,0-6.09-2.593,19.307,19.307,0,0,0-6.8.381A69.271,69.271,0,0,0-429.024-27.7c-1.462.619-2.956,1.165-4.447,1.717A3.551,3.551,0,0,1-436-26c-1.226-.456-2.454-.911-3.659-1.421a64.631,64.631,0,0,0-14.251-4.555,15.542,15.542,0,0,0-8.447.539,9.257,9.257,0,0,0-5.493,5.227,10.332,10.332,0,0,0-.526,5.321q.384,3.208.753,6.418c.161,1.4.262,2.806.493,4.193a3.686,3.686,0,0,0,.718,1.672A4.033,4.033,0,0,0-463.2-7.066h1.436Zm20.245-10.24a7.8,7.8,0,0,1-.693.5,26.461,26.461,0,0,1-10.683,3.485,9.566,9.566,0,0,1-6.443-1.859,4.34,4.34,0,0,1-.735-.694l-.024-.024a1.387,1.387,0,0,1,0-1.963,6.157,6.157,0,0,1,2-1.591,13.932,13.932,0,0,1,4.922-1.43,7.231,7.231,0,0,1,2.276.37,48.575,48.575,0,0,1,6.848,2.271c.669.256,1.353.477,2.028.718.129.047.253.107.5.213Zm14.111-.146c2.4-.861,4.78-1.759,7.195-2.566a32.35,32.35,0,0,1,3.524-.859,2.8,2.8,0,0,1,1,.058,13.629,13.629,0,0,1,4.834,1.561,7.694,7.694,0,0,1,1.656,1.347,1.409,1.409,0,0,1,.111.109,1.346,1.346,0,0,1-.084,1.9,6.256,6.256,0,0,1-2.783,1.834,11.556,11.556,0,0,1-7.417.269,29.31,29.31,0,0,1-7.666-3.036c-.21-.123-.4-.276-.645-.444A2.033,2.033,0,0,1-427.392-17.32ZM-500.925,4.921a7.783,7.783,0,0,0,1.544,5.135,6.5,6.5,0,0,0,5.242,2.368,6.453,6.453,0,0,0,4.83-2.041,6.925,6.925,0,0,0,1.975-5.005v-8.5h-5.716V5.487q0,1.3-1.07,1.3t-1.085-1.3V-3.118h-5.716ZM-484-3.332V11.906h5.716V-3.332Zm2.874-6.8a2.8,2.8,0,0,0-2.01.818,2.6,2.6,0,0,0-.848,1.934,2.581,2.581,0,0,0,.8,1.956,2.857,2.857,0,0,0,2.055.764,2.859,2.859,0,0,0,2.056-.764,2.581,2.581,0,0,0,.8-1.956,2.6,2.6,0,0,0-.848-1.934,2.8,2.8,0,0,0-2.01-.818ZM-452.1-1.366a7.541,7.541,0,0,0-2.354,5.632A7.616,7.616,0,0,0-452.1,9.882a7.769,7.769,0,0,0,5.67,2.334,7.756,7.756,0,0,0,5.662-2.323,7.623,7.623,0,0,0,2.346-5.624,7.649,7.649,0,0,0-2.315-5.587A7.557,7.557,0,0,0-446.3-3.653,8.014,8.014,0,0,0-452.1-1.366Zm7.228,4.017a2.256,2.256,0,0,1,.642,1.628,2.242,2.242,0,0,1-.649,1.616,2.1,2.1,0,0,1-1.567.673A2.082,2.082,0,0,1-448,5.894a2.246,2.246,0,0,1-.649-1.616,2.26,2.26,0,0,1,.642-1.628,2.087,2.087,0,0,1,1.559-.664A2.105,2.105,0,0,1-444.874,2.65Zm15.452-6.3a6.219,6.219,0,0,0-4.814,1.963,7.485,7.485,0,0,0-1.8,5.265v8.329h5.716V4.676q0-2.384,1.559-2.384a2.256,2.256,0,0,1,1.085.337V-3.485A11.806,11.806,0,0,0-429.422-3.653Zm10.041,0a6.219,6.219,0,0,0-4.814,1.963A7.485,7.485,0,0,0-426,3.576v8.329h5.716V4.676q0-2.384,1.559-2.384a2.256,2.256,0,0,1,1.085.337V-3.485A11.806,11.806,0,0,0-419.381-3.653Zm4.843,2.287a7.542,7.542,0,0,0-2.354,5.632,7.616,7.616,0,0,0,2.354,5.616,7.769,7.769,0,0,0,5.67,2.334A7.754,7.754,0,0,0-403.2,9.892a7.62,7.62,0,0,0,2.347-5.624,7.649,7.649,0,0,0-2.315-5.587,7.557,7.557,0,0,0-5.556-2.334A8.015,8.015,0,0,0-414.537-1.366Zm7.231,4.017a2.256,2.256,0,0,1,.642,1.628,2.243,2.243,0,0,1-.65,1.616,2.1,2.1,0,0,1-1.567.673,2.082,2.082,0,0,1-1.551-.673,2.243,2.243,0,0,1-.65-1.616,2.259,2.259,0,0,1,.642-1.628,2.087,2.087,0,0,1,1.559-.664A2.1,2.1,0,0,1-407.306,2.65Zm-118.564-30.2a12.159,12.159,0,0,1,9.606,4.035q3.558,4.035,3.557,11.972a30.448,30.448,0,0,1-1.885,10.487A33.5,33.5,0,0,0-520.8-4.69a17,17,0,0,0-6.5-1.327,50.58,50.58,0,0,0-4.288,3.358q-2.561,2.19-5.376,4.924a50.638,50.638,0,0,1,12.663,3.771,28.63,28.63,0,0,1-8.017,1.381c-8.212,0-17.3-6.914-18.184-13.3s1.062-13.76,5.415-15.371l-4.592-1.514c-4.33,4.369-6.57,4.9-8.545,17.776-.663,4.309.808,10.1,2.7,13.466a11.87,11.87,0,0,0,5.92,4.911,18.061,18.061,0,0,0,7.115,1.779,46.565,46.565,0,0,0,10.273-1.726,48.81,48.81,0,0,0,12.636-5.1,108.788,108.788,0,0,1,9.478,5.974l4.008-6.69a47.993,47.993,0,0,0-5.6-6.265,35.309,35.309,0,0,0,7.672-10.38,25.808,25.808,0,0,0,3.105-11.491,12.885,12.885,0,0,0-3.8-9.052q-3.771-4.009-12.583-4.009-13.46,0-32.387,10.8l4.592,1.514Q-534.424-27.544-525.87-27.547Zm63.544,39.3V7.529h-5.935l4.676-9.247h-11.838V2.469h5.378l-4.646,9.277Z" transform="translate(729.742 82.871)"/></g></svg>